<svg xmlns="http://www.w3.org/2000/svg" xmlns:xlink="http://www.w3.org/1999/xlink" version="1.1" x="0px" y="0px" viewBox="0 0 24 24" style="enable-background:new 0 0 24 24;" xml:space="preserve">
  <path d="M12,0.5C5.4,0.5,0.5,5.4,0.5,12S5.4,23.5,12,23.5S23.5,18.6,23.5,12S18.6,0.5,12,0.5L12,0.5z M18.4,6L12,16.9V17c-0.7,1-1.7,1.6-2.9,1.7c-0.1,0-0.3,0-0.4,0c-1.4,0-2.7-0.6-3.7-1.5L3.2,12.7C1.9,11.4,1.5,9.4,2,7.6c0.5-1.8,1.9-3.2,3.7-3.7 c1.8-0.5,3.7,0,5.1,1.3L11,10.7l8.8-12.3C21.9,4,23.7,4.9,24,6.8C24.3,8.7,23.1,10.6,21.2,11L21.2,11z"/>
  <text x="0" y="20" fill="#000000" font-size="2px" font-weight="bold" font-family="'Helvetica Neue', Helvetica, Arial-Unicode, Arial, Sans-serif">Created by leaad</text>
  <text x="0" y="22" fill="#000000" font-size="2px" font-weight="bold" font-family="'Helvetica Neue', Helvetica, Arial-Unicode, Arial, Sans-serif">from the Noun Project</text>
</svg>
