<svg xmlns="http://www.w3.org/2000/svg" xmlns:xlink="http://www.w3.org/1999/xlink" version="1.1" x="0px" y="0px" viewBox="0 0 16px 16px" style="enable-background:new 0 0 100 100;" xml:space="preserve"><path d="M50,2.5c-12.6,0-24.7,5-33.6,13.9C7.5,25.3,2.5,37.4,2.5,50s5,24.7,13.9,33.6c8.9,8.9,21,13.9,33.6,13.9s24.7-5,33.6-13.9  c8.9-8.9,13.9-21,13.9-33.6s-5-24.7-13.9-33.6C74.7,7.5,62.6,2.5,50,2.5L50,2.5z M75.4,32L49,68.9v0c-0.9,1.3-2.3,2.1-3.9,2.2  c-0.1,0-0.3,0-0.4,0c-1.4,0-2.7-0.6-3.7-1.5L25.2,53.7c-1.3-1.3-1.8-3.3-1.3-5.1c0.5-1.8,1.9-3.2,3.7-3.7c1.8-0.5,3.7,0,5.1,1.3  L44,57.7l22.8-31.9c1.1-1.5,2.9-2.4,4.8-2.2c1.9,0.2,3.5,1.4,4.3,3.1C76.7,28.4,76.5,30.4,75.4,32L75.4,32z"/><text x="0" y="115" fill="#000000" font-size="5px" font-weight="bold" font-family="'Helvetica Neue', Helvetica, Arial-Unicode, Arial, Sans-serif"></text></svg>