<svg xmlns="http://www.w3.org/2000/svg" xmlns:xlink="http://www.w3.org/1999/xlink" xmlns:serif="http://www.serif.com/" viewBox="0 0 32 40" version="1.1" xml:space="preserve" style="" x="0px" y="0px" fill-rule="evenodd" clip-rule="evenodd" stroke-linejoin="round" stroke-miterlimit="2"><g transform="matrix(1,0,0,1,-384,0)"><path d="M400.468,2.825C400.395,2.629 400.209,2.5 400,2.5C399.791,2.5 399.605,2.629 399.532,2.825L396.191,11.758C396.191,11.758 386.663,12.174 386.663,12.174C386.455,12.183 386.274,12.321 386.21,12.519C386.145,12.718 386.211,12.935 386.374,13.065L393.838,19.002C393.838,19.002 391.289,28.193 391.289,28.193C391.233,28.394 391.308,28.608 391.477,28.731C391.646,28.853 391.873,28.858 392.047,28.743L400,23.48C400,23.48 407.953,28.743 407.953,28.743C408.127,28.858 408.354,28.853 408.523,28.731C408.692,28.608 408.767,28.394 408.711,28.193L406.162,19.002C406.162,19.002 413.626,13.065 413.626,13.065C413.789,12.935 413.855,12.718 413.79,12.519C413.726,12.321 413.545,12.183 413.337,12.174L403.809,11.758C403.809,11.758 400.468,2.825 400.468,2.825Z"/></g><text x="0" y="47" fill="#000000" font-size="5px" font-weight="bold" font-family="'Helvetica Neue', Helvetica, Arial-Unicode, Arial, Sans-serif"></text><text x="0" y="52" fill="#ffffff" font-size="5px" font-weight="bold" font-family="'Helvetica Neue', Helvetica, Arial-Unicode, Arial, Sans-serif"></text></svg>